<svg version="1.1" xmlns="http://www.w3.org/2000/svg" xmlns:xlink="http://www.w3.org/1999/xlink" width="16" height="16" viewBox="0 0 16 16">
    <path fill="#ffffff" d="M934.4 699.734c0 0 0 4.267-4.267 4.267 0 0 0 4.267-4.267 4.267l-128 170.667c-4.267 12.8-17.067 17.067-29.867 17.067h-512c-12.8 0-25.6-4.267-34.133-17.067l-128-170.667c0 0 0-4.267-4.267-4.267 0 0 0-4.267-4.267-4.267 0-8.533 0-12.8 0-17.067v-597.333c0-72.533 55.467-128 128-128h597.333c72.533 0 128 55.467 128 128v597.333c0 4.267 0 8.533-4.267 17.067zM277.333 810.667h469.333l64-85.333h-597.333l64 85.333zM810.667 42.667h-597.333c-25.6 0-42.667 17.067-42.667 42.667v554.667h682.667v-554.667c0-25.6-17.067-42.667-42.667-42.667zM682.667 554.667c-25.6 0-42.667-17.067-42.667-42.667 0-72.533-55.467-128-128-128s-128 55.467-128 128c0 25.6-17.067 42.667-42.667 42.667s-42.667-17.067-42.667-42.667c0-119.467 93.867-213.333 213.333-213.333s213.333 93.867 213.333 213.333c0 25.6-17.067 42.667-42.667 42.667z" />
</svg>